<mxfile host="app.diagrams.net" modified="2024-01-16T15:20:49.045Z" agent="Mozilla/5.0 (Windows NT 10.0; Win64; x64; rv:121.0) Gecko/20100101 Firefox/121.0" etag="ed-dHHflZAIdhvEXndme" version="22.1.18" type="github">
  <diagram name="Seite-1" id="IBqcnsN6eLZTh5Qhn7dX">
    <mxGraphModel dx="2074" dy="1941" grid="1" gridSize="10" guides="1" tooltips="1" connect="1" arrows="1" fold="1" page="1" pageScale="1" pageWidth="1169" pageHeight="827" math="0" shadow="0">
      <root>
        <mxCell id="0" />
        <mxCell id="1" parent="0" />
        <mxCell id="1YuBAB6H5FNzcQYwjlHQ-1" value="" style="ellipse;whiteSpace=wrap;html=1;aspect=fixed;strokeWidth=2;" parent="1" vertex="1">
          <mxGeometry x="40" y="120" width="80" height="80" as="geometry" />
        </mxCell>
        <mxCell id="1YuBAB6H5FNzcQYwjlHQ-2" value="" style="ellipse;whiteSpace=wrap;html=1;aspect=fixed;strokeWidth=2;" parent="1" vertex="1">
          <mxGeometry x="880" y="-20" width="80" height="80" as="geometry" />
        </mxCell>
        <mxCell id="1YuBAB6H5FNzcQYwjlHQ-4" value="" style="ellipse;whiteSpace=wrap;html=1;aspect=fixed;strokeWidth=2;" parent="1" vertex="1">
          <mxGeometry x="280" y="120" width="80" height="80" as="geometry" />
        </mxCell>
        <mxCell id="1YuBAB6H5FNzcQYwjlHQ-5" value="" style="ellipse;whiteSpace=wrap;html=1;aspect=fixed;strokeWidth=2;" parent="1" vertex="1">
          <mxGeometry x="1000" y="120" width="80" height="80" as="geometry" />
        </mxCell>
        <mxCell id="1YuBAB6H5FNzcQYwjlHQ-6" value="" style="ellipse;whiteSpace=wrap;html=1;aspect=fixed;strokeWidth=2;" parent="1" vertex="1">
          <mxGeometry x="520" y="120" width="80" height="80" as="geometry" />
        </mxCell>
        <mxCell id="1YuBAB6H5FNzcQYwjlHQ-8" value="φ" style="rounded=0;whiteSpace=wrap;html=1;fontSize=40;strokeWidth=2;" parent="1" vertex="1">
          <mxGeometry x="160" y="120" width="80" height="80" as="geometry" />
        </mxCell>
        <mxCell id="1YuBAB6H5FNzcQYwjlHQ-9" value="A" style="rounded=0;whiteSpace=wrap;html=1;fontSize=44;strokeWidth=2;" parent="1" vertex="1">
          <mxGeometry x="400" y="120" width="80" height="80" as="geometry" />
        </mxCell>
        <mxCell id="1YuBAB6H5FNzcQYwjlHQ-10" value="B" style="rounded=0;whiteSpace=wrap;html=1;fontSize=44;strokeWidth=2;" parent="1" vertex="1">
          <mxGeometry x="660" y="-20" width="80" height="80" as="geometry" />
        </mxCell>
        <mxCell id="1YuBAB6H5FNzcQYwjlHQ-11" value="D" style="rounded=0;whiteSpace=wrap;html=1;fontSize=44;strokeWidth=2;" parent="1" vertex="1">
          <mxGeometry x="880" y="120" width="80" height="80" as="geometry" />
        </mxCell>
        <mxCell id="1YuBAB6H5FNzcQYwjlHQ-12" value="" style="endArrow=classic;html=1;rounded=0;curved=1;exitX=1;exitY=0.5;exitDx=0;exitDy=0;strokeWidth=2;" parent="1" source="1YuBAB6H5FNzcQYwjlHQ-8" edge="1">
          <mxGeometry width="50" height="50" relative="1" as="geometry">
            <mxPoint x="300" y="210" as="sourcePoint" />
            <mxPoint x="280" y="160" as="targetPoint" />
          </mxGeometry>
        </mxCell>
        <mxCell id="1YuBAB6H5FNzcQYwjlHQ-13" value="" style="endArrow=classic;html=1;rounded=0;curved=1;entryX=0;entryY=0.5;entryDx=0;entryDy=0;exitX=1;exitY=0.5;exitDx=0;exitDy=0;strokeWidth=2;" parent="1" source="1YuBAB6H5FNzcQYwjlHQ-4" target="1YuBAB6H5FNzcQYwjlHQ-9" edge="1">
          <mxGeometry width="50" height="50" relative="1" as="geometry">
            <mxPoint x="300" y="210" as="sourcePoint" />
            <mxPoint x="350" y="160" as="targetPoint" />
          </mxGeometry>
        </mxCell>
        <mxCell id="1YuBAB6H5FNzcQYwjlHQ-15" value="" style="endArrow=classic;html=1;rounded=0;curved=1;exitX=1;exitY=0.5;exitDx=0;exitDy=0;entryX=0;entryY=0.5;entryDx=0;entryDy=0;strokeWidth=2;" parent="1" source="1YuBAB6H5FNzcQYwjlHQ-9" target="1YuBAB6H5FNzcQYwjlHQ-6" edge="1">
          <mxGeometry width="50" height="50" relative="1" as="geometry">
            <mxPoint x="550" y="190" as="sourcePoint" />
            <mxPoint x="600" y="140" as="targetPoint" />
          </mxGeometry>
        </mxCell>
        <mxCell id="1YuBAB6H5FNzcQYwjlHQ-17" value="" style="endArrow=classic;html=1;rounded=0;curved=1;exitX=1;exitY=0;exitDx=0;exitDy=0;entryX=0;entryY=0.5;entryDx=0;entryDy=0;strokeWidth=2;" parent="1" source="1YuBAB6H5FNzcQYwjlHQ-6" target="1YuBAB6H5FNzcQYwjlHQ-10" edge="1">
          <mxGeometry width="50" height="50" relative="1" as="geometry">
            <mxPoint x="590" y="160" as="sourcePoint" />
            <mxPoint x="640" y="160" as="targetPoint" />
          </mxGeometry>
        </mxCell>
        <mxCell id="1YuBAB6H5FNzcQYwjlHQ-19" value="" style="endArrow=classic;html=1;rounded=0;curved=1;exitX=1;exitY=0.5;exitDx=0;exitDy=0;entryX=0;entryY=0.5;entryDx=0;entryDy=0;strokeWidth=2;" parent="1" source="1YuBAB6H5FNzcQYwjlHQ-10" target="1YuBAB6H5FNzcQYwjlHQ-2" edge="1">
          <mxGeometry width="50" height="50" relative="1" as="geometry">
            <mxPoint x="610" y="230" as="sourcePoint" />
            <mxPoint x="660" y="180" as="targetPoint" />
          </mxGeometry>
        </mxCell>
        <mxCell id="1YuBAB6H5FNzcQYwjlHQ-21" value="" style="endArrow=classic;html=1;rounded=0;curved=1;exitX=1;exitY=0.5;exitDx=0;exitDy=0;entryX=0;entryY=0.5;entryDx=0;entryDy=0;strokeWidth=2;" parent="1" source="1YuBAB6H5FNzcQYwjlHQ-11" target="1YuBAB6H5FNzcQYwjlHQ-5" edge="1">
          <mxGeometry width="50" height="50" relative="1" as="geometry">
            <mxPoint x="970" y="280" as="sourcePoint" />
            <mxPoint x="1020" y="230" as="targetPoint" />
          </mxGeometry>
        </mxCell>
        <mxCell id="1YuBAB6H5FNzcQYwjlHQ-22" value="" style="ellipse;whiteSpace=wrap;html=1;aspect=fixed;strokeWidth=2;" parent="1" vertex="1">
          <mxGeometry x="880" y="260" width="80" height="80" as="geometry" />
        </mxCell>
        <mxCell id="1YuBAB6H5FNzcQYwjlHQ-23" value="C" style="rounded=0;whiteSpace=wrap;html=1;fontSize=44;strokeWidth=2;" parent="1" vertex="1">
          <mxGeometry x="660" y="260" width="80" height="80" as="geometry" />
        </mxCell>
        <mxCell id="1YuBAB6H5FNzcQYwjlHQ-25" value="" style="endArrow=classic;html=1;rounded=0;curved=1;exitX=1;exitY=0.5;exitDx=0;exitDy=0;entryX=0;entryY=0.5;entryDx=0;entryDy=0;strokeWidth=2;" parent="1" source="1YuBAB6H5FNzcQYwjlHQ-23" target="1YuBAB6H5FNzcQYwjlHQ-22" edge="1">
          <mxGeometry width="50" height="50" relative="1" as="geometry">
            <mxPoint x="770" y="360" as="sourcePoint" />
            <mxPoint x="690" y="390" as="targetPoint" />
          </mxGeometry>
        </mxCell>
        <mxCell id="1YuBAB6H5FNzcQYwjlHQ-26" value="" style="endArrow=classic;html=1;rounded=0;curved=1;exitX=1;exitY=0.5;exitDx=0;exitDy=0;strokeWidth=2;entryX=0.007;entryY=0.635;entryDx=0;entryDy=0;entryPerimeter=0;" parent="1" source="1YuBAB6H5FNzcQYwjlHQ-22" target="38OJZpCKWBIkEkBOtK0j-17" edge="1">
          <mxGeometry width="50" height="50" relative="1" as="geometry">
            <mxPoint x="960" y="190" as="sourcePoint" />
            <mxPoint x="1010" y="300" as="targetPoint" />
          </mxGeometry>
        </mxCell>
        <mxCell id="1YuBAB6H5FNzcQYwjlHQ-27" value="" style="endArrow=classic;html=1;rounded=0;curved=1;entryX=0;entryY=0.5;entryDx=0;entryDy=0;exitX=1;exitY=0.5;exitDx=0;exitDy=0;strokeWidth=2;" parent="1" source="1YuBAB6H5FNzcQYwjlHQ-1" target="1YuBAB6H5FNzcQYwjlHQ-8" edge="1">
          <mxGeometry width="50" height="50" relative="1" as="geometry">
            <mxPoint x="350" y="240" as="sourcePoint" />
            <mxPoint x="400" y="310" as="targetPoint" />
          </mxGeometry>
        </mxCell>
        <mxCell id="1YuBAB6H5FNzcQYwjlHQ-28" value="t*" style="rounded=0;whiteSpace=wrap;html=1;dashed=1;dashPattern=8 8;fontSize=30;strokeWidth=2;" parent="1" vertex="1">
          <mxGeometry x="880" y="430" width="80" height="80" as="geometry" />
        </mxCell>
        <mxCell id="1YuBAB6H5FNzcQYwjlHQ-29" value="" style="endArrow=classic;html=1;rounded=0;curved=1;entryX=1;entryY=0.5;entryDx=0;entryDy=0;exitX=0;exitY=1;exitDx=0;exitDy=0;dashed=1;dashPattern=8 8;strokeWidth=2;" parent="1" source="9U9fe0AIUVm3C8UtWrKh-1" target="1YuBAB6H5FNzcQYwjlHQ-28" edge="1">
          <mxGeometry width="50" height="50" relative="1" as="geometry">
            <mxPoint x="980" y="270" as="sourcePoint" />
            <mxPoint x="890" y="350" as="targetPoint" />
            <Array as="points">
              <mxPoint x="1360" y="470" />
            </Array>
          </mxGeometry>
        </mxCell>
        <mxCell id="1YuBAB6H5FNzcQYwjlHQ-30" value="" style="endArrow=classic;html=1;rounded=0;curved=1;entryX=0.839;entryY=0.977;entryDx=0;entryDy=0;exitX=0;exitY=0.5;exitDx=0;exitDy=0;dashed=1;dashPattern=8 8;entryPerimeter=0;strokeWidth=2;" parent="1" source="1YuBAB6H5FNzcQYwjlHQ-28" target="1YuBAB6H5FNzcQYwjlHQ-1" edge="1">
          <mxGeometry width="50" height="50" relative="1" as="geometry">
            <mxPoint x="660" y="254" as="sourcePoint" />
            <mxPoint x="340" y="414" as="targetPoint" />
            <Array as="points">
              <mxPoint x="250" y="480" />
            </Array>
          </mxGeometry>
        </mxCell>
        <mxCell id="9U9fe0AIUVm3C8UtWrKh-1" value="" style="ellipse;whiteSpace=wrap;html=1;aspect=fixed;strokeWidth=2;" parent="1" vertex="1">
          <mxGeometry x="1480" y="130" width="80" height="80" as="geometry" />
        </mxCell>
        <mxCell id="9U9fe0AIUVm3C8UtWrKh-2" value="ψ" style="rounded=0;whiteSpace=wrap;html=1;fontSize=40;strokeWidth=2;" parent="1" vertex="1">
          <mxGeometry x="1360" y="130" width="80" height="80" as="geometry" />
        </mxCell>
        <mxCell id="9U9fe0AIUVm3C8UtWrKh-3" value="" style="endArrow=classic;html=1;rounded=0;curved=1;exitX=1;exitY=0.5;exitDx=0;exitDy=0;strokeWidth=2;" parent="1" source="9U9fe0AIUVm3C8UtWrKh-2" edge="1">
          <mxGeometry width="50" height="50" relative="1" as="geometry">
            <mxPoint x="1510" y="220" as="sourcePoint" />
            <mxPoint x="1490" y="170" as="targetPoint" />
          </mxGeometry>
        </mxCell>
        <mxCell id="9U9fe0AIUVm3C8UtWrKh-4" value="" style="endArrow=classic;html=1;rounded=0;curved=1;exitX=1;exitY=0;exitDx=0;exitDy=0;entryX=0.5;entryY=1;entryDx=0;entryDy=0;strokeWidth=2;" parent="1" edge="1" target="38OJZpCKWBIkEkBOtK0j-16" source="1YuBAB6H5FNzcQYwjlHQ-5">
          <mxGeometry width="50" height="50" relative="1" as="geometry">
            <mxPoint x="1100" y="159.66" as="sourcePoint" />
            <mxPoint x="1140" y="159.66" as="targetPoint" />
          </mxGeometry>
        </mxCell>
        <mxCell id="38OJZpCKWBIkEkBOtK0j-1" value="i" style="text;html=1;strokeColor=none;fillColor=none;align=center;verticalAlign=middle;whiteSpace=wrap;rounded=0;fontSize=30;" vertex="1" parent="1">
          <mxGeometry x="50" y="200" width="60" height="40" as="geometry" />
        </mxCell>
        <mxCell id="38OJZpCKWBIkEkBOtK0j-2" value="o" style="text;html=1;strokeColor=none;fillColor=none;align=center;verticalAlign=middle;whiteSpace=wrap;rounded=0;fontSize=30;" vertex="1" parent="1">
          <mxGeometry x="1490" y="210" width="60" height="40" as="geometry" />
        </mxCell>
        <mxCell id="38OJZpCKWBIkEkBOtK0j-3" value="s&lt;sub&gt;1&lt;/sub&gt;" style="text;html=1;strokeColor=none;fillColor=none;align=center;verticalAlign=middle;whiteSpace=wrap;rounded=0;fontSize=20;" vertex="1" parent="1">
          <mxGeometry x="290" y="200" width="60" height="40" as="geometry" />
        </mxCell>
        <mxCell id="38OJZpCKWBIkEkBOtK0j-5" value="&lt;div style=&quot;font-size: 20px;&quot;&gt;s&lt;sub&gt;2&lt;/sub&gt;&lt;/div&gt;" style="text;html=1;strokeColor=none;fillColor=none;align=center;verticalAlign=middle;whiteSpace=wrap;rounded=0;fontSize=20;" vertex="1" parent="1">
          <mxGeometry x="530" y="200" width="60" height="40" as="geometry" />
        </mxCell>
        <mxCell id="38OJZpCKWBIkEkBOtK0j-6" value="s&lt;sub&gt;4&lt;/sub&gt;" style="text;html=1;strokeColor=none;fillColor=none;align=center;verticalAlign=middle;whiteSpace=wrap;rounded=0;fontSize=20;" vertex="1" parent="1">
          <mxGeometry x="890" y="60" width="60" height="40" as="geometry" />
        </mxCell>
        <mxCell id="38OJZpCKWBIkEkBOtK0j-7" value="s&lt;sub&gt;5&lt;/sub&gt;" style="text;html=1;strokeColor=none;fillColor=none;align=center;verticalAlign=middle;whiteSpace=wrap;rounded=0;fontSize=20;" vertex="1" parent="1">
          <mxGeometry x="890" y="340" width="60" height="40" as="geometry" />
        </mxCell>
        <mxCell id="38OJZpCKWBIkEkBOtK0j-8" value="s&lt;sub&gt;6&lt;/sub&gt;" style="text;html=1;strokeColor=none;fillColor=none;align=center;verticalAlign=middle;whiteSpace=wrap;rounded=0;fontSize=20;" vertex="1" parent="1">
          <mxGeometry x="1010" y="200" width="60" height="40" as="geometry" />
        </mxCell>
        <mxCell id="38OJZpCKWBIkEkBOtK0j-10" value="" style="endArrow=classic;html=1;rounded=0;curved=1;entryX=0;entryY=0.5;entryDx=0;entryDy=0;strokeWidth=2;exitX=1;exitY=1;exitDx=0;exitDy=0;" edge="1" parent="1" source="1YuBAB6H5FNzcQYwjlHQ-6" target="1YuBAB6H5FNzcQYwjlHQ-23">
          <mxGeometry width="50" height="50" relative="1" as="geometry">
            <mxPoint x="590" y="160" as="sourcePoint" />
            <mxPoint x="670" y="50" as="targetPoint" />
          </mxGeometry>
        </mxCell>
        <mxCell id="38OJZpCKWBIkEkBOtK0j-11" value="" style="ellipse;whiteSpace=wrap;html=1;aspect=fixed;strokeWidth=2;" vertex="1" parent="1">
          <mxGeometry x="760" y="120" width="80" height="80" as="geometry" />
        </mxCell>
        <mxCell id="38OJZpCKWBIkEkBOtK0j-12" value="s&lt;sub&gt;3&lt;/sub&gt;" style="text;html=1;strokeColor=none;fillColor=none;align=center;verticalAlign=middle;whiteSpace=wrap;rounded=0;fontSize=20;" vertex="1" parent="1">
          <mxGeometry x="770" y="200" width="60" height="40" as="geometry" />
        </mxCell>
        <mxCell id="38OJZpCKWBIkEkBOtK0j-13" value="" style="endArrow=classic;html=1;rounded=0;curved=1;exitX=0.5;exitY=1;exitDx=0;exitDy=0;strokeWidth=2;entryX=0;entryY=0.393;entryDx=0;entryDy=0;entryPerimeter=0;" edge="1" parent="1" source="1YuBAB6H5FNzcQYwjlHQ-10" target="38OJZpCKWBIkEkBOtK0j-11">
          <mxGeometry width="50" height="50" relative="1" as="geometry">
            <mxPoint x="720" y="320" as="sourcePoint" />
            <mxPoint x="760" y="170" as="targetPoint" />
          </mxGeometry>
        </mxCell>
        <mxCell id="38OJZpCKWBIkEkBOtK0j-14" value="" style="endArrow=classic;html=1;rounded=0;curved=1;exitX=0.5;exitY=0;exitDx=0;exitDy=0;strokeWidth=2;entryX=0.015;entryY=0.643;entryDx=0;entryDy=0;entryPerimeter=0;" edge="1" parent="1" source="1YuBAB6H5FNzcQYwjlHQ-23" target="38OJZpCKWBIkEkBOtK0j-11">
          <mxGeometry width="50" height="50" relative="1" as="geometry">
            <mxPoint x="720" y="240" as="sourcePoint" />
            <mxPoint x="780" y="350" as="targetPoint" />
          </mxGeometry>
        </mxCell>
        <mxCell id="38OJZpCKWBIkEkBOtK0j-15" value="" style="endArrow=classic;html=1;rounded=0;curved=1;entryX=0;entryY=0.5;entryDx=0;entryDy=0;exitX=1;exitY=0.5;exitDx=0;exitDy=0;strokeWidth=2;" edge="1" parent="1" source="38OJZpCKWBIkEkBOtK0j-11" target="1YuBAB6H5FNzcQYwjlHQ-11">
          <mxGeometry width="50" height="50" relative="1" as="geometry">
            <mxPoint x="840" y="210" as="sourcePoint" />
            <mxPoint x="880" y="160" as="targetPoint" />
          </mxGeometry>
        </mxCell>
        <mxCell id="38OJZpCKWBIkEkBOtK0j-16" value="E" style="rounded=0;whiteSpace=wrap;html=1;fontSize=44;strokeWidth=2;" vertex="1" parent="1">
          <mxGeometry x="1100" y="-20" width="80" height="80" as="geometry" />
        </mxCell>
        <mxCell id="38OJZpCKWBIkEkBOtK0j-17" value="F" style="rounded=0;whiteSpace=wrap;html=1;fontSize=44;strokeWidth=2;" vertex="1" parent="1">
          <mxGeometry x="1100" y="250" width="80" height="80" as="geometry" />
        </mxCell>
        <mxCell id="38OJZpCKWBIkEkBOtK0j-18" value="" style="endArrow=classic;html=1;rounded=0;curved=1;exitX=1;exitY=0.5;exitDx=0;exitDy=0;strokeWidth=2;entryX=0.007;entryY=0.635;entryDx=0;entryDy=0;entryPerimeter=0;" edge="1" parent="1">
          <mxGeometry width="50" height="50" relative="1" as="geometry">
            <mxPoint x="960" y="19.410000000000025" as="sourcePoint" />
            <mxPoint x="1101" y="20.410000000000025" as="targetPoint" />
          </mxGeometry>
        </mxCell>
        <mxCell id="38OJZpCKWBIkEkBOtK0j-19" value="" style="endArrow=classic;html=1;rounded=0;curved=1;exitX=1;exitY=1;exitDx=0;exitDy=0;entryX=0.5;entryY=0;entryDx=0;entryDy=0;strokeWidth=2;" edge="1" parent="1" source="1YuBAB6H5FNzcQYwjlHQ-5" target="38OJZpCKWBIkEkBOtK0j-17">
          <mxGeometry width="50" height="50" relative="1" as="geometry">
            <mxPoint x="1106" y="156" as="sourcePoint" />
            <mxPoint x="1150" y="70" as="targetPoint" />
          </mxGeometry>
        </mxCell>
        <mxCell id="38OJZpCKWBIkEkBOtK0j-20" value="" style="ellipse;whiteSpace=wrap;html=1;aspect=fixed;strokeWidth=2;" vertex="1" parent="1">
          <mxGeometry x="1230" y="130" width="80" height="80" as="geometry" />
        </mxCell>
        <mxCell id="38OJZpCKWBIkEkBOtK0j-21" value="s&lt;sub&gt;7&lt;/sub&gt;" style="text;html=1;strokeColor=none;fillColor=none;align=center;verticalAlign=middle;whiteSpace=wrap;rounded=0;fontSize=20;" vertex="1" parent="1">
          <mxGeometry x="1240" y="210" width="60" height="40" as="geometry" />
        </mxCell>
        <mxCell id="38OJZpCKWBIkEkBOtK0j-22" value="" style="endArrow=classic;html=1;rounded=0;curved=1;exitX=1;exitY=1;exitDx=0;exitDy=0;entryX=0.28;entryY=0.075;entryDx=0;entryDy=0;strokeWidth=2;entryPerimeter=0;" edge="1" parent="1" target="38OJZpCKWBIkEkBOtK0j-20">
          <mxGeometry width="50" height="50" relative="1" as="geometry">
            <mxPoint x="1180" y="20" as="sourcePoint" />
            <mxPoint x="1232" y="82" as="targetPoint" />
          </mxGeometry>
        </mxCell>
        <mxCell id="38OJZpCKWBIkEkBOtK0j-23" value="" style="endArrow=classic;html=1;rounded=0;curved=1;exitX=1;exitY=0;exitDx=0;exitDy=0;entryX=0;entryY=1;entryDx=0;entryDy=0;strokeWidth=2;" edge="1" parent="1" target="38OJZpCKWBIkEkBOtK0j-20">
          <mxGeometry width="50" height="50" relative="1" as="geometry">
            <mxPoint x="1180" y="292" as="sourcePoint" />
            <mxPoint x="1232" y="220" as="targetPoint" />
          </mxGeometry>
        </mxCell>
        <mxCell id="38OJZpCKWBIkEkBOtK0j-24" value="" style="endArrow=classic;html=1;rounded=0;curved=1;exitX=1;exitY=0.5;exitDx=0;exitDy=0;entryX=0;entryY=0.5;entryDx=0;entryDy=0;strokeWidth=2;" edge="1" parent="1" target="9U9fe0AIUVm3C8UtWrKh-2">
          <mxGeometry width="50" height="50" relative="1" as="geometry">
            <mxPoint x="1310" y="169.5" as="sourcePoint" />
            <mxPoint x="1370" y="169.5" as="targetPoint" />
          </mxGeometry>
        </mxCell>
      </root>
    </mxGraphModel>
  </diagram>
</mxfile>
